<svg width="643" height="140" viewBox="0 0 643 140" xmlns="http://www.w3.org/2000/svg">
  <style>
    /* Light mode: black fills for contrast */
    .themed-fill { fill: #000; }

    /* Dark mode: white fills for contrast */
    @media (prefers-color-scheme: dark) {
      .themed-fill { fill: #fff; }
    }
  </style>

  <!-- All originally-white shapes now use class, no inline fill -->
  <path d="M211.6 108L209.5 96.9H193.7L191.6 108H178L191.5 38H212.2L225 108H211.6ZM201.4 51L197.5 74.3L195.3 86.2H207.8L205.5 74.3L201.6 51H201.4ZM257.047 108H246.547C243.614 104.267 241.614 100.533 240.547 96.8C239.48 93.0667 238.947 88.4 238.947 82.8V56.9H252.247V83.8C252.247 89.8667 253.447 94.4333 255.847 97.5H265.147V56.9H278.447V108H267.947L266.147 104.4C263.614 106.8 260.58 108 257.047 108ZM335.703 108H325.603L323.803 104.4C322.336 105.733 320.936 106.667 319.603 107.2C318.336 107.733 316.403 108 313.803 108H305.103C302.17 105.2 299.836 101.533 298.103 97C296.436 92.4667 295.603 87.4 295.603 81.8C295.603 76.1333 296.436 71.3333 298.103 67.4C299.836 63.4667 302.27 59.9667 305.403 56.9H314.003C317.536 56.9 320.336 57.8333 322.403 59.7V38H335.703V108ZM322.403 67.4H312.803C310.336 71.6 309.103 76.7667 309.103 82.9C309.103 88.9667 310.303 93.8333 312.703 97.5H322.403V67.4ZM354.269 108V56.9H367.469V108H354.269ZM354.269 38H367.469V51.5H354.269V38ZM389.046 85.7V67.4H382.146V56.9H389.046V43H402.346V56.9H410.546V67.4H402.346V88.9C402.346 92.9667 403.046 95.8333 404.446 97.5H410.546V108H396.346C392.813 104.733 390.679 101.2 389.946 97.4C389.346 94.2 389.046 90.3 389.046 85.7Z" class="themed-fill"/>
  
  <!-- Gradient is preserved, not themed -->
  <path d="M469.3 108L462.3 66.7H461.9L454.7 108H440.7L431 38H444.4L447.2 58.6L449.3 81.8H449.8L453.5 58.7L456.6 38H467.9L470.9 58.7L474.7 81.8H475.2L477.2 58.6L480 38H493.4L483.7 108H469.3ZM529.728 84.9H519.028C517.628 86.6333 516.928 88.8 516.928 91.4C516.928 94 517.661 96.0333 519.128 97.5H529.728V84.9ZM508.228 56.9H533.028C537.028 59.3 539.661 62.0667 540.928 65.2C542.195 68.2667 542.828 72.4667 542.828 77.8V92.8C542.828 98.3333 542.961 103.4 543.228 108H531.828L530.028 104.4C527.428 106.8 523.761 108 519.028 108H512.728C507.061 104.267 504.228 98.9 504.228 91.9C504.228 84.8333 507.128 79.2667 512.928 75.2H522.328C524.928 75.2 527.361 76 529.628 77.6V72.6C529.628 70 528.495 68.2667 526.228 67.4H508.228V56.9ZM561.529 108V56.9H571.029L573.529 62.3C576.196 58.7 579.562 56.9 583.629 56.9H587.529V70.3H574.829V108H561.529ZM624.509 67.4H617.009C616.009 68.6 615.176 70.2667 614.509 72.4C613.909 74.5333 613.609 76.6 613.609 78.6H627.909C628.043 76.6 627.776 74.5333 627.109 72.4C626.443 70.2 625.576 68.5333 624.509 67.4ZM638.109 97.5V108H612.709C608.043 104.867 604.743 101 602.809 96.4C600.943 91.7333 600.009 87.0333 600.009 82.3C600.009 71.3667 604.143 62.9 612.409 56.9H628.609C633.076 60.1667 636.109 63.6333 637.709 67.3C639.309 70.9667 640.109 74.6667 640.109 78.4C640.109 82.1333 639.809 85.3333 639.209 88H614.309C614.509 89.5333 615.076 91.3 616.009 93.3C617.009 95.2333 618.076 96.6333 619.209 97.5H638.109Z" fill="url(#paint0_linear_11901_16)"/>
  
  <!-- Eye icon + subcomponents -->
  <path d="M54.0325 116.204C68.8643 119.928 84.354 119.93 99.2034 116.221L96.2361 109.181C90.5129 112.249 83.9273 113.995 76.9193 113.995C69.7081 113.995 62.9441 112.146 57.1069 108.91L54.0325 116.204Z" class="themed-fill"/>
  <path d="M44.8574 113.391C26.6153 106.754 12.7183 93.8598 0 75.4094C39.8974 17.5302 113.103 17.5302 153 75.4094C140.143 94.0609 126.857 106.739 108.384 113.421L104.223 103.547C111.975 96.5081 115.356 85.4813 115.356 74.3843C115.356 53.0715 98.9564 36.8232 76.9193 36.8232C54.8823 36.8232 39.2697 54.0965 39.2697 75.4093C39.2697 86.2953 41.6814 96.1273 49.1771 103.142L44.8574 113.391Z" class="themed-fill"/>
  <path d="M59.8742 67.638C70.5148 61.3539 74.0989 56.361 76.4822 46.1063C76.5384 45.8644 76.8832 45.8521 76.9575 46.089C80.319 56.8122 84.6289 61.5473 94.9075 67.6282C95.0855 67.7335 95.0559 68.006 94.8605 68.0729C83.0726 72.106 79.7156 76.8998 78.7106 87.7925C78.6853 88.0665 78.2761 88.1016 78.2056 87.8357C75.2449 76.6717 70.9395 72.2025 59.9126 68.0804C59.722 68.0092 59.6988 67.7416 59.8742 67.638Z" class="themed-fill"/>
  <path d="M86.4629 87.5251C90.4085 85.1321 91.8795 83.1562 92.8312 79.3919C92.8922 79.1507 93.2447 79.1368 93.3235 79.3728C94.6381 83.311 96.365 85.1988 100.188 87.5149C100.364 87.6217 100.337 87.8902 100.143 87.9596C95.917 89.4731 94.4765 91.2809 93.9701 95.0212C93.9331 95.2943 93.4907 95.3316 93.4102 95.0682C92.2364 91.2236 90.4858 89.5134 86.5018 87.9669C86.3127 87.8935 86.2893 87.6304 86.4629 87.5251Z" class="themed-fill"/>
  
  <defs>
    <linearGradient id="paint0_linear_11901_16" x1="536.5" y1="0" x2="536.5" y2="140" gradientUnits="userSpaceOnUse">
      <stop stop-color="#BDA1FF"/>
      <stop offset="1" stop-color="#49327E"/>
    </linearGradient>
  </defs>
</svg>
