<?xml version="1.0" encoding="UTF-8"?><svg id="Layer_1" xmlns="http://www.w3.org/2000/svg" viewBox="0 0 1516.37 1705.65"><defs><style>.cls-1{fill:#bdc8b9;stroke-width:0px;}</style></defs><polyline class="cls-1" points="67.77 530.9 142.12 455.37 348.3 455.37 421.08 531.54"/><polygon class="cls-1" points="363.71 441.85 363.71 290.1 489.91 164.31 489.91 459.93 435.55 514.11 363.71 441.85"/><polyline class="cls-1" points="15.18 916.24 474.09 916.24 348.3 790.04 142.12 790.04"/><polygon class="cls-1" points="126.2 624.48 126.2 776.23 0 902.02 0 606.4 54.36 552.22 126.2 624.48"/><polygon class="cls-1" points="363.71 624.48 363.71 776.23 489.91 902.02 489.91 606.4 435.55 552.22 363.71 624.48"/><polyline class="cls-1" points="67.77 530.9 142.12 607.71 348.3 607.71 421.08 531.54"/><polyline class="cls-1" points="528.41 150.09 987.32 150.09 861.52 276.28 655.35 276.28"/><polygon class="cls-1" points="639.43 441.85 639.43 290.1 513.23 164.31 513.23 459.93 567.59 514.11 639.43 441.85"/><polygon class="cls-1" points="876.94 441.85 876.94 290.1 1003.14 164.31 1003.14 459.93 948.78 514.11 876.94 441.85"/><polyline class="cls-1" points="528.41 916.24 987.32 916.24 861.52 790.04 655.35 790.04"/><polygon class="cls-1" points="639.43 624.48 639.43 776.23 513.23 902.02 513.23 606.4 567.59 552.22 639.43 624.48"/><polygon class="cls-1" points="876.94 624.48 876.94 776.23 1003.14 902.02 1003.14 606.4 948.78 552.22 876.94 624.48"/><polyline class="cls-1" points="1094.23 530.9 1168.58 455.37 1374.75 455.37 1447.54 531.54"/><polygon class="cls-1" points="1152.66 441.85 1152.66 290.1 1026.46 164.31 1026.46 459.93 1080.82 514.11 1152.66 441.85"/><polyline class="cls-1" points="1041.64 916.24 1500.55 916.24 1374.75 790.04 1168.58 790.04"/><polygon class="cls-1" points="1152.66 624.48 1152.66 776.23 1026.46 902.02 1026.46 606.4 1080.82 552.22 1152.66 624.48"/><polygon class="cls-1" points="1390.17 624.48 1390.17 776.23 1516.37 902.02 1516.37 606.4 1462.01 552.22 1390.17 624.48"/><polyline class="cls-1" points="1094.23 530.9 1168.58 607.71 1374.75 607.71 1447.54 531.54"/><polyline class="cls-1" points="528.41 939.5 987.32 939.5 861.52 1065.7 655.35 1065.7"/><polyline class="cls-1" points="581 1320.31 655.35 1244.78 861.52 1244.78 934.31 1320.95"/><polygon class="cls-1" points="639.43 1231.26 639.43 1079.51 513.23 953.72 513.23 1249.34 567.59 1303.52 639.43 1231.26"/><polygon class="cls-1" points="876.94 1231.26 876.94 1079.51 1003.14 953.72 1003.14 1249.34 948.78 1303.52 876.94 1231.26"/><polyline class="cls-1" points="528.41 1705.65 987.32 1705.65 861.52 1579.45 655.35 1579.45"/><polygon class="cls-1" points="639.43 1413.89 639.43 1565.64 513.23 1691.43 513.23 1395.81 567.59 1341.63 639.43 1413.89"/><polygon class="cls-1" points="876.94 1413.89 876.94 1565.64 1003.14 1691.43 1003.14 1395.81 948.78 1341.63 876.94 1413.89"/><polyline class="cls-1" points="581 1320.31 655.35 1397.12 861.52 1397.12 934.31 1320.95"/><polygon class="cls-1" points="655.35 455.37 861.52 455.37 934.31 531.54 861.52 607.71 655.35 607.71 581 531.54 655.35 455.37"/><polyline class="cls-1" points="528.41 126.2 987.32 126.2 861.52 0 655.35 0"/><polyline class="cls-1" points="581 530.27 655.35 454.74 861.52 454.74 934.31 530.91"/><polygon class="cls-1" points="639.43 441.22 639.43 289.47 513.23 163.68 513.23 459.3 567.59 513.48 639.43 441.22"/><polygon class="cls-1" points="876.94 441.22 876.94 289.47 1003.14 163.68 1003.14 459.3 948.78 513.48 876.94 441.22"/><polyline class="cls-1" points="528.41 915.61 987.32 915.61 861.52 789.41 655.35 789.41"/><polygon class="cls-1" points="639.43 623.85 639.43 775.6 513.23 901.39 513.23 605.77 567.59 551.59 639.43 623.85"/><polygon class="cls-1" points="876.94 623.85 876.94 775.6 1003.14 901.39 1003.14 605.77 948.78 551.59 876.94 623.85"/><polyline class="cls-1" points="581 530.27 655.35 607.08 861.52 607.08 934.31 530.91"/></svg>