<?xml version="1.0" encoding="UTF-8"?>
<svg id="Layer_1" xmlns="http://www.w3.org/2000/svg" version="1.1" viewBox="0 0 1298 630">
  <!-- Generator: Adobe Illustrator 29.3.1, SVG Export Plug-In . SVG Version: 2.1.0 Build 151)  -->
  <defs>
    <style>
      /* Light mode: black fills for contrast */
      .themed-fill { fill: #000; fill-rule: evenodd; }

      /* Dark mode: white fills for contrast */
      @media (prefers-color-scheme: dark) {
        .themed-fill { fill: #fff; fill-rule: evenodd; }
      }
  </style>
  </defs>
  <g>
    <path class="themed-fill" d="M153.9,158h140.4c7.4,0,13.4-6,13.4-13.4s-6-13.4-13.4-13.4h-140.4c-7.4,0-13.4,6-13.4,13.4s6,13.4,13.4,13.4Z"/>
    <path class="themed-fill" d="M178,120.4h92.6c7.4,0,13.4-6,13.4-13.4s-6-13.4-13.4-13.4h-92.6c-7.4,0-13.4,6-13.4,13.4s6,13.4,13.4,13.4Z"/>
    <path class="themed-fill" d="M201.6,82.9h44.4c7.4,0,13.4-6,13.4-13.4s-6-13.4-13.4-13.4h-44.4c-7.4,0-13.4,6-13.4,13.4s6,13.4,13.4,13.4Z"/>
    <rect class="themed-fill" x="213.9" y="18.6" width="20.1" height="26.7" rx="10" ry="10"/>
    <path class="themed-fill" d="M130,195.5h187.6c7.4,0,13.4-6,13.4-13.4s-6-13.4-13.4-13.4h-187.6c-7.4,0-13.4,6-13.4,13.4s6,13.4,13.4,13.4Z"/>
    <path class="themed-fill" d="M105.6,233.1h235.6c7.4,0,13.4-6,13.4-13.4s-6-13.4-13.4-13.4H105.6c-7.4,0-13.4,6-13.4,13.4s6,13.4,13.4,13.4Z"/>
    <path class="themed-fill" d="M82,270.6h283.6c7.4,0,13.4-6,13.4-13.4s-6-13.4-13.4-13.4H82c-7.4,0-13.4,6-13.4,13.4h0c0,7.4,6,13.4,13.4,13.4Z"/>
    <path class="themed-fill" d="M57.6,308.2h331.6c7.4,0,13.4-6,13.4-13.4s-6-13.4-13.4-13.4H57.6c-7.4,0-13.4,6-13.4,13.4h0c0,7.4,6,13.4,13.4,13.4Z"/>
    <path class="themed-fill" d="M414.9,319H34.3c-7.4,0-13.4,6-13.4,13.4h0c0,7.4,6,13.4,13.4,13.4h380.6c7.4,0,13.4-6,13.4-13.4s-6-13.4-13.4-13.4Z"/>
    <path class="themed-fill" d="M100.5,356.5h243.6c7.4,0,13.4,6,13.4,13.4h0c0,7.4-6,13.4-13.4,13.4H100.5c-7.4,0-13.4-6-13.4-13.4h0c0-7.4,6-13.4,13.4-13.4Z"/>
    <path class="themed-fill" d="M167.7,394.1c-7.4,0-13.4,6-13.4,13.4s6,13.4,13.4,13.4h110.6c7.4,0,13.4-6,13.4-13.4h0c0-7.4-6-13.4-13.4-13.4h-110.6,0Z"/>
    <path class="themed-fill" d="M127,469.2h194.6c7.4,0,13.4,6,13.4,13.4h0c0,7.4-6,13.4-13.4,13.4H127c-7.4,0-13.4-6-13.4-13.4h0c0-7.4,6-13.4,13.4-13.4Z"/>
    <path class="themed-fill" d="M291.9,506.7h-137.6c-7.4,0-13.4,6-13.4,13.4s6,13.4,13.4,13.4h137.6c7.4,0,13.4-6,13.4-13.4h0c0-7.4-6-13.4-13.4-13.4h0Z"/>
    <path class="themed-fill" d="M264.4,544.3h-80.6c-7.4,0-13.4,6-13.4,13.4s6,13.4,13.4,13.4h80.6c7.4,0,13.4-6,13.4-13.4h0c0-7.4-6-13.4-13.4-13.4Z"/>
    <path class="themed-fill" d="M234.4,581.8h-21.6c-7.4,0-13.4,6-13.4,13.4s6,13.4,13.4,13.4h21.6c7.4,0,13.4-6,13.4-13.4h0c0-7.4-6-13.4-13.4-13.4Z"/>
    <path class="themed-fill" d="M150.1,445c0-7.4-6-13.4-13.4-13.4h-37.6c-7.4,0-13.4,6-13.4,13.4s6,13.4,13.4,13.4h37.6c7.4,0,13.4-6,13.4-13.4Z"/>
    <path class="themed-fill" d="M348.3,431.6h-37.6c-7.4,0-13.4,6-13.4,13.4s6,13.4,13.4,13.4h37.6c7.4,0,13.4-6,13.4-13.4s-6-13.4-13.4-13.4Z"/>
    <path class="themed-fill" d="M376.3,394.1h-2.6c-7.4,0-13.4,6-13.4,13.4s6,13.4,13.4,13.4h2.6c7.4,0,13.4-6,13.4-13.4h0c0-7.4-6-13.4-13.4-13.4Z"/>
    <path class="themed-fill" d="M87.1,407.4c0-7.4-6-13.4-13.4-13.4h-2.6c-7.4,0-13.4,6-13.4,13.4s6,13.4,13.4,13.4h2.6c7.4,0,13.4-6,13.4-13.4h0Z"/>
  </g>
  <g>
    <path class="themed-fill" d="M485.7,499V159.6h185.3v59.2h-116.7v82.8h105.3v53h-105.3v85.2h116.7v59.2h-185.3Z"/>
    <path class="themed-fill" d="M883.2,504c-21.8,0-41.6-3.8-58.9-11.4-17.3-7.6-31.9-19-43.6-34.3-11.8-15.2-20.8-33.6-27-55.1-6.2-21.5-9.3-46.4-9.3-74.5s3.1-53,9.3-74.5c6.2-21.5,15.2-39.5,27-54.4,11.8-14.5,26.3-26,43.3-33.6s35.7-11.8,56.4-11.8,47.4,5.2,66.5,15.9c19.4,10.7,34.6,26.7,46.4,47.4,11.8,21.1,18.4,47.8,19.7,80.3h-68.9c-2.1-20.1-5.9-36-11.8-48.1-5.9-12.1-12.8-21.1-21.5-26.7-8.3-5.5-17.7-8.7-28-8.7s-26.3,4.5-36,13.2c-9.7,8.7-17.3,21.5-22.5,38.4-5.2,17-7.6,37.4-7.6,62s1.4,35,3.8,49.2c2.4,14.5,6.9,26.3,12.5,35.7,5.9,9.3,12.8,16.6,21.1,21.5,8.3,4.8,17.7,7.6,28.4,7.6s20.8-2.4,29.1-7.6c8.3-5.2,15.2-13.5,20.8-25.3,5.2-11.8,9-26.3,10.7-44h68.9c-1.7,23.2-5.5,43.6-12.1,60.9-6.6,17.3-15.2,31.9-26.7,43.3-11.4,11.4-24.6,20.1-39.5,25.3-14.9,5.2-32.2,8.3-51.3,8.3l.7.7Z"/>
    <path class="themed-fill" d="M1098.6,499V159.6h183.2v60.9h-113.6v89.7h101.5v59.2h-101.5v129.5h-70,.3Z"/>
  </g>
</svg>